<svg width="446" height="135" viewBox="0 0 446 135" fill="none" xmlns="http://www.w3.org/2000/svg">
<g filter="url(#filter0_di_1002_15)">
<path d="M180.76 42.3529L188.222 14.9445H197.9L185.809 50.7996H179.554L180.76 42.3529ZM173.988 14.9445L181.45 42.3529L182.706 50.7996H176.377L164.36 14.9445H173.988ZM224.225 44.1506V50.7996H206.1V44.1506H224.225ZM209.178 14.9445V50.7996H200.535V14.9445H209.178ZM243.556 22.4799L234.814 50.7996H225.53L238.705 14.9445H244.59L243.556 22.4799ZM250.796 50.7996L242.029 22.4799L240.896 14.9445H246.856L260.104 50.7996H250.796ZM250.451 37.4278V44.1014H232.056V37.4278H250.451ZM274.387 50.7996H266.433L266.482 44.1506H274.387C276.029 44.1506 277.416 43.7566 278.549 42.9686C279.698 42.1805 280.568 41.0067 281.159 39.4471C281.767 37.871 282.071 35.9338 282.071 33.6354V32.084C282.071 30.3602 281.898 28.8498 281.553 27.5529C281.225 26.2395 280.733 25.1477 280.076 24.2776C279.419 23.3911 278.598 22.7262 277.613 22.2829C276.645 21.8397 275.528 21.618 274.264 21.618H266.285V14.9445H274.264C276.694 14.9445 278.918 15.3631 280.938 16.2004C282.974 17.0212 284.73 18.2033 286.208 19.7465C287.702 21.2733 288.851 23.0874 289.655 25.1888C290.476 27.2738 290.887 29.5886 290.887 32.1332V33.6354C290.887 36.1637 290.476 38.4785 289.655 40.5799C288.851 42.6813 287.71 44.4954 286.232 46.0222C284.755 47.549 283.006 48.731 280.987 49.5683C278.984 50.3891 276.784 50.7996 274.387 50.7996ZM271.383 14.9445V50.7996H262.739V14.9445H271.383ZM304.579 14.9445V50.7996H295.96V14.9445H304.579ZM329.13 41.2694C329.13 40.7112 329.048 40.2105 328.884 39.7672C328.72 39.3075 328.416 38.8807 327.973 38.4867C327.53 38.0927 326.889 37.6987 326.052 37.3047C325.231 36.8942 324.148 36.4674 322.802 36.0241C321.226 35.4988 319.707 34.9077 318.246 34.2511C316.785 33.578 315.48 32.7981 314.33 31.9116C313.181 31.0087 312.27 29.958 311.597 28.7595C310.924 27.5446 310.587 26.1328 310.587 24.5239C310.587 22.9807 310.932 21.5934 311.621 20.3621C312.311 19.1144 313.271 18.0555 314.503 17.1854C315.75 16.2989 317.212 15.6258 318.886 15.1661C320.561 14.69 322.391 14.452 324.378 14.452C327.004 14.452 329.319 14.9116 331.322 15.831C333.341 16.7339 334.917 18.0227 336.05 19.6972C337.199 21.3554 337.774 23.3172 337.774 25.5828H329.18C329.18 24.6799 328.991 23.8836 328.613 23.1941C328.252 22.5046 327.702 21.9628 326.963 21.5688C326.225 21.1748 325.297 20.9778 324.181 20.9778C323.097 20.9778 322.186 21.142 321.447 21.4703C320.708 21.7986 320.15 22.2419 319.773 22.8001C319.395 23.3419 319.206 23.9411 319.206 24.5978C319.206 25.1395 319.354 25.632 319.649 26.0753C319.961 26.5022 320.396 26.9044 320.955 27.282C321.529 27.6596 322.219 28.0207 323.023 28.3655C323.844 28.7103 324.763 29.0468 325.781 29.3752C327.686 29.9826 329.377 30.6639 330.854 31.4191C332.348 32.1579 333.604 33.0034 334.622 33.9555C335.656 34.8913 336.436 35.9584 336.961 37.1569C337.503 38.3553 337.774 39.7098 337.774 41.2201C337.774 42.829 337.462 44.2573 336.838 45.505C336.214 46.7527 335.32 47.8116 334.154 48.6817C332.988 49.5354 331.593 50.1839 329.968 50.6272C328.342 51.0704 326.528 51.2921 324.525 51.2921C322.687 51.2921 320.873 51.0622 319.083 50.6026C317.31 50.1265 315.701 49.4041 314.256 48.4355C312.812 47.4505 311.654 46.1945 310.784 44.6677C309.931 43.1245 309.504 41.294 309.504 39.1762H318.172C318.172 40.2269 318.311 41.1134 318.591 41.8358C318.87 42.5581 319.28 43.141 319.822 43.5842C320.364 44.0111 321.029 44.323 321.817 44.52C322.605 44.7006 323.508 44.7909 324.525 44.7909C325.625 44.7909 326.512 44.6349 327.185 44.323C327.858 43.9946 328.351 43.5678 328.662 43.0424C328.974 42.5007 329.13 41.9097 329.13 41.2694ZM365.921 44.1506V50.7996H347.797V44.1506H365.921ZM350.875 14.9445V50.7996H342.231V14.9445H350.875ZM385.252 22.4799L376.51 50.7996H367.226L380.401 14.9445H386.287L385.252 22.4799ZM392.492 50.7996L383.726 22.4799L382.593 14.9445H388.552L401.801 50.7996H392.492ZM392.148 37.4278V44.1014H373.752V37.4278H392.148ZM416.084 42.3529L423.546 14.9445H433.223L421.132 50.7996H414.877L416.084 42.3529ZM409.312 14.9445L416.773 42.3529L418.029 50.7996H411.701L399.683 14.9445H409.312ZM196.521 81.6407V96.3669C195.913 97.04 194.978 97.7624 193.713 98.534C192.466 99.2892 190.89 99.9377 188.985 100.479C187.081 101.021 184.84 101.292 182.262 101.292C179.882 101.292 177.723 100.914 175.786 100.159C173.849 99.3877 172.182 98.2631 170.787 96.7856C169.408 95.2916 168.341 93.4693 167.585 91.3186C166.847 89.1516 166.477 86.6726 166.477 83.8817V81.887C166.477 79.0961 166.855 76.6171 167.61 74.45C168.365 72.2829 169.424 70.4606 170.787 68.9831C172.166 67.4891 173.783 66.3563 175.638 65.5847C177.51 64.8131 179.562 64.4273 181.795 64.4273C185.094 64.4273 187.779 64.9527 189.847 66.0034C191.916 67.0377 193.484 68.4742 194.551 70.3129C195.618 72.1352 196.266 74.2448 196.496 76.6417H188.197C188.033 75.4597 187.721 74.4582 187.261 73.6374C186.818 72.8001 186.178 72.168 185.341 71.7412C184.503 71.2979 183.42 71.0763 182.09 71.0763C181.056 71.0763 180.112 71.2979 179.258 71.7412C178.421 72.1844 177.707 72.8575 177.116 73.7605C176.525 74.647 176.065 75.7634 175.737 77.1096C175.425 78.4558 175.269 80.0318 175.269 81.8377V83.8817C175.269 85.6711 175.416 87.239 175.712 88.5852C176.024 89.9314 176.484 91.056 177.091 91.9589C177.715 92.8454 178.503 93.5185 179.455 93.9782C180.424 94.4215 181.565 94.6431 182.878 94.6431C183.797 94.6431 184.585 94.5692 185.242 94.4215C185.899 94.2573 186.441 94.0603 186.867 93.8305C187.311 93.5842 187.647 93.3544 187.877 93.141V87.5755H181.868V81.6407H196.521ZM201.569 64.9445H215.68C218.438 64.9445 220.835 65.3549 222.87 66.1758C224.906 66.9966 226.474 68.2115 227.574 69.8204C228.69 71.4293 229.248 73.4157 229.248 75.7798C229.248 77.8319 228.928 79.5475 228.288 80.9266C227.648 82.3056 226.753 83.4466 225.604 84.3496C224.471 85.2361 223.149 85.9667 221.639 86.5413L218.807 88.1419H206.962L206.913 81.4683H215.68C216.78 81.4683 217.691 81.2713 218.413 80.8773C219.135 80.4833 219.677 79.9251 220.038 79.2028C220.416 78.464 220.605 77.5857 220.605 76.5678C220.605 75.5335 220.416 74.647 220.038 73.9082C219.661 73.1695 219.103 72.6031 218.364 72.2091C217.641 71.8151 216.747 71.618 215.68 71.618H210.213V100.8H201.569V64.9445ZM221.196 100.8L213.266 84.9406L222.427 84.8913L230.455 100.43V100.8H221.196ZM243.654 64.9445V100.8H235.035V64.9445H243.654ZM279.682 64.9445V100.8H271.063L258.381 78.4886V100.8H249.737V64.9445H258.381L271.063 87.2554V64.9445H279.682ZM315.094 64.9445V100.8H306.475L293.792 78.4886V100.8H285.149V64.9445H293.792L306.475 87.2554V64.9445H315.094Z" fill="white"/>
</g>
<g filter="url(#filter1_d_1002_15)">
<path d="M104.811 1.02743L56.744 118L9 1.02744L46.969 1.02744L57.0671 35.56L68.2154 1.02743C68.2154 1.02743 77.4883 1.00345 83.4299 1.00041C91.7798 0.996127 104.811 1.02743 104.811 1.02743Z" fill="white"/>
<path d="M100.368 65.7962H69.104C62.3719 57.4198 59.0059 48.584 59.0059 39.2888C59.0059 28.4805 62.9643 19.4015 70.8813 12.0519C78.7443 4.70223 88.4385 1.0274 99.9639 1.0274C133.086 1.0274 141.864 11.5925 146.873 21.7794C151.882 31.9662 153.767 43.423 153.767 59.7976C153.767 76.2262 148.462 89.8988 137.852 100.815C127.188 111.732 113.886 117.19 97.9442 117.19C92.5047 117.19 86.4728 116.082 79.8484 113.866L79.8484 80.9549C85.0186 83.3867 89.7311 84.6027 93.9858 84.6027C101.687 84.6027 107.989 82.1978 112.889 77.3881C117.737 72.5784 120.16 66.3366 120.16 58.6627C120.16 50.8267 117.898 44.6119 113.374 40.0184C108.85 35.4249 102.737 33.1281 95.036 33.1281C90.135 33.1281 87.6845 34.5602 87.6845 37.4244C87.6845 39.5861 89.3002 40.6669 92.5316 40.6669H100.368L100.368 65.7962Z" fill="white"/>
</g>
<g filter="url(#filter2_i_1002_15)">
<path d="M104.811 1.02743L56.744 118L9 1.02744L46.969 1.02744L57.0671 35.56L68.2154 1.02743C68.2154 1.02743 77.4883 1.00345 83.4299 1.00041C91.7798 0.996127 104.811 1.02743 104.811 1.02743Z" fill="white"/>
<path d="M100.368 65.7962H69.104C62.3719 57.4198 59.0059 48.584 59.0059 39.2888C59.0059 28.4805 62.9643 19.4015 70.8813 12.0519C78.7443 4.70223 88.4385 1.0274 99.9639 1.0274C133.086 1.0274 141.864 11.5925 146.873 21.7794C151.882 31.9662 153.767 43.423 153.767 59.7976C153.767 76.2262 148.462 89.8988 137.852 100.815C127.188 111.732 113.886 117.19 97.9442 117.19C92.5047 117.19 86.4728 116.082 79.8484 113.866L79.8484 80.9549C85.0186 83.3867 89.7311 84.6027 93.9858 84.6027C101.687 84.6027 107.989 82.1978 112.889 77.3881C117.737 72.5784 120.16 66.3366 120.16 58.6627C120.16 50.8267 117.898 44.6119 113.374 40.0184C108.85 35.4249 102.737 33.1281 95.036 33.1281C90.135 33.1281 87.6845 34.5602 87.6845 37.4244C87.6845 39.5861 89.3002 40.6669 92.5316 40.6669H100.368L100.368 65.7962Z" fill="white"/>
</g>
<defs>
<filter id="filter0_di_1002_15" x="152.096" y="9.97488" width="293.391" height="111.367" filterUnits="userSpaceOnUse" color-interpolation-filters="sRGB">
<feFlood flood-opacity="0" result="BackgroundImageFix"/>
<feColorMatrix in="SourceAlpha" type="matrix" values="0 0 0 0 0 0 0 0 0 0 0 0 0 0 0 0 0 0 127 0" result="hardAlpha"/>
<feOffset dy="7.78623"/>
<feGaussianBlur stdDeviation="6.13166"/>
<feComposite in2="hardAlpha" operator="out"/>
<feColorMatrix type="matrix" values="0 0 0 0 0 0 0 0 0 0 0 0 0 0 0 0 0 0 0.15 0"/>
<feBlend mode="normal" in2="BackgroundImageFix" result="effect1_dropShadow_1002_15"/>
<feBlend mode="normal" in="SourceGraphic" in2="effect1_dropShadow_1002_15" result="shape"/>
<feColorMatrix in="SourceAlpha" type="matrix" values="0 0 0 0 0 0 0 0 0 0 0 0 0 0 0 0 0 0 127 0" result="hardAlpha"/>
<feOffset dy="3.89311"/>
<feGaussianBlur stdDeviation="1.65457"/>
<feComposite in2="hardAlpha" operator="arithmetic" k2="-1" k3="1"/>
<feColorMatrix type="matrix" values="0 0 0 0 0 0 0 0 0 0 0 0 0 0 0 0 0 0 0.15 0"/>
<feBlend mode="normal" in2="shape" result="effect2_innerShadow_1002_15"/>
</filter>
<filter id="filter1_d_1002_15" x="0.435147" y="0.221377" width="161.896" height="134.13" filterUnits="userSpaceOnUse" color-interpolation-filters="sRGB">
<feFlood flood-opacity="0" result="BackgroundImageFix"/>
<feColorMatrix in="SourceAlpha" type="matrix" values="0 0 0 0 0 0 0 0 0 0 0 0 0 0 0 0 0 0 127 0" result="hardAlpha"/>
<feOffset dy="7.78623"/>
<feGaussianBlur stdDeviation="4.28243"/>
<feComposite in2="hardAlpha" operator="out"/>
<feColorMatrix type="matrix" values="0 0 0 0 0 0 0 0 0 0 0 0 0 0 0 0 0 0 0.15 0"/>
<feBlend mode="normal" in2="BackgroundImageFix" result="effect1_dropShadow_1002_15"/>
<feBlend mode="normal" in="SourceGraphic" in2="effect1_dropShadow_1002_15" result="shape"/>
</filter>
<filter id="filter2_i_1002_15" x="9" y="1" width="144.767" height="124.787" filterUnits="userSpaceOnUse" color-interpolation-filters="sRGB">
<feFlood flood-opacity="0" result="BackgroundImageFix"/>
<feBlend mode="normal" in="SourceGraphic" in2="BackgroundImageFix" result="shape"/>
<feColorMatrix in="SourceAlpha" type="matrix" values="0 0 0 0 0 0 0 0 0 0 0 0 0 0 0 0 0 0 127 0" result="hardAlpha"/>
<feOffset dy="7.78623"/>
<feGaussianBlur stdDeviation="3.89311"/>
<feComposite in2="hardAlpha" operator="arithmetic" k2="-1" k3="1"/>
<feColorMatrix type="matrix" values="0 0 0 0 0 0 0 0 0 0 0 0 0 0 0 0 0 0 0.15 0"/>
<feBlend mode="normal" in2="shape" result="effect1_innerShadow_1002_15"/>
</filter>
</defs>
</svg>
